<svg width="333" height="147" viewBox="0 0 333 147" fill="none" xmlns="http://www.w3.org/2000/svg">
<g filter="url(#filter0_dd_1107_1548)">
<g clip-path="url(#clip0_1107_1548)">
<rect x="156" y="101" width="20" height="20" rx="6" fill="#F3303E"/>
<g clip-path="url(#clip1_1107_1548)">
<path d="M164.513 115.703L164.433 115.386C164.085 113.998 163.002 112.915 161.614 112.567L161.297 112.488C160.901 112.248 160.901 111.673 161.297 111.433L161.587 111.36C162.989 111.009 164.079 109.907 164.416 108.501L164.465 108.297C164.715 107.883 165.323 107.906 165.541 108.338C165.831 109.926 167.074 111.169 168.662 111.459C169.094 111.677 169.117 112.285 168.703 112.535L168.499 112.584C167.093 112.921 165.991 114.011 165.64 115.413L165.567 115.703C165.327 116.099 164.752 116.099 164.512 115.703L164.513 115.703Z" fill="white"/>
<path d="M167.756 108.851L167.716 108.693C167.542 107.999 167.001 107.457 166.307 107.283L166.149 107.244C165.95 107.124 165.95 106.836 166.149 106.716L166.293 106.68C166.994 106.504 167.539 105.954 167.708 105.251L167.732 105.149C167.857 104.942 168.161 104.953 168.271 105.169C168.415 105.963 169.037 106.585 169.831 106.729C170.047 106.838 170.058 107.143 169.851 107.268L169.749 107.292C169.046 107.461 168.496 108.006 168.32 108.707L168.284 108.851C168.164 109.05 167.876 109.05 167.756 108.851L167.756 108.851Z" fill="white"/>
<path d="M171.317 111.888L171.287 111.769C171.157 111.249 170.751 110.843 170.23 110.712L170.111 110.683C169.963 110.593 169.963 110.377 170.111 110.287L170.22 110.26C170.746 110.128 171.155 109.715 171.281 109.188L171.299 109.111C171.393 108.956 171.621 108.965 171.703 109.127C171.812 109.722 172.278 110.188 172.873 110.297C173.035 110.379 173.044 110.607 172.889 110.701L172.812 110.719C172.285 110.845 171.871 111.254 171.74 111.78L171.713 111.889C171.623 112.037 171.407 112.037 171.317 111.889L171.317 111.888Z" fill="white"/>
</g>
</g>
</g>
<g filter="url(#filter1_dd_1107_1548)">
<rect x="38" y="26" width="257" height="66" rx="8" fill="white"/>
<path d="M252.584 55C252.491 55 252.411 54.9673 252.346 54.902C252.281 54.8367 252.248 54.7573 252.248 54.664V46.922H249.658C249.565 46.922 249.485 46.8893 249.42 46.824C249.355 46.7587 249.322 46.6793 249.322 46.586V45.55C249.322 45.4473 249.355 45.3633 249.42 45.298C249.485 45.2327 249.565 45.2 249.658 45.2H256.798C256.901 45.2 256.985 45.2327 257.05 45.298C257.115 45.3633 257.148 45.4473 257.148 45.55V46.586C257.148 46.6793 257.115 46.7587 257.05 46.824C256.985 46.8893 256.901 46.922 256.798 46.922H254.222V54.664C254.222 54.7573 254.189 54.8367 254.124 54.902C254.059 54.9673 253.975 55 253.872 55H252.584ZM258.655 55C258.561 55 258.482 54.9673 258.417 54.902C258.351 54.8367 258.319 54.7573 258.319 54.664V48.056C258.319 47.9627 258.351 47.8833 258.417 47.818C258.482 47.7527 258.561 47.72 258.655 47.72H259.817C259.919 47.72 259.999 47.7527 260.055 47.818C260.12 47.8833 260.153 47.9627 260.153 48.056V54.664C260.153 54.7573 260.12 54.8367 260.055 54.902C259.999 54.9673 259.919 55 259.817 55H258.655ZM258.599 46.516C258.505 46.516 258.426 46.4833 258.361 46.418C258.295 46.3527 258.263 46.2733 258.263 46.18V45.172C258.263 45.0787 258.295 44.9993 258.361 44.934C258.426 44.8687 258.505 44.836 258.599 44.836H259.873C259.975 44.836 260.059 44.8687 260.125 44.934C260.19 44.9993 260.223 45.0787 260.223 45.172V46.18C260.223 46.2733 260.19 46.3527 260.125 46.418C260.059 46.4833 259.975 46.516 259.873 46.516H258.599ZM265.3 55C264.74 55 264.269 54.902 263.886 54.706C263.503 54.51 263.219 54.2207 263.032 53.838C262.845 53.446 262.752 52.9607 262.752 52.382V49.204H261.646C261.553 49.204 261.473 49.1713 261.408 49.106C261.343 49.0407 261.31 48.9567 261.31 48.854V48.056C261.31 47.9627 261.343 47.8833 261.408 47.818C261.473 47.7527 261.553 47.72 261.646 47.72H262.752V45.396C262.752 45.3027 262.78 45.2233 262.836 45.158C262.901 45.0927 262.985 45.06 263.088 45.06H264.222C264.315 45.06 264.395 45.0927 264.46 45.158C264.525 45.2233 264.558 45.3027 264.558 45.396V47.72H266.308C266.401 47.72 266.481 47.7527 266.546 47.818C266.611 47.8833 266.644 47.9627 266.644 48.056V48.854C266.644 48.9567 266.611 49.0407 266.546 49.106C266.481 49.1713 266.401 49.204 266.308 49.204H264.558V52.242C264.558 52.6247 264.623 52.9233 264.754 53.138C264.894 53.3527 265.132 53.46 265.468 53.46H266.434C266.527 53.46 266.607 53.4927 266.672 53.558C266.737 53.6233 266.77 53.7027 266.77 53.796V54.664C266.77 54.7573 266.737 54.8367 266.672 54.902C266.607 54.9673 266.527 55 266.434 55H265.3ZM268.362 55C268.269 55 268.189 54.9673 268.124 54.902C268.059 54.8367 268.026 54.7573 268.026 54.664V45.396C268.026 45.3027 268.059 45.2233 268.124 45.158C268.189 45.0927 268.269 45.06 268.362 45.06H269.524C269.617 45.06 269.697 45.0927 269.762 45.158C269.827 45.2233 269.86 45.3027 269.86 45.396V54.664C269.86 54.7573 269.827 54.8367 269.762 54.902C269.697 54.9673 269.617 55 269.524 55H268.362ZM274.853 55.14C273.817 55.14 272.996 54.8413 272.389 54.244C271.782 53.6467 271.456 52.7973 271.409 51.696C271.4 51.6027 271.395 51.486 271.395 51.346C271.395 51.1967 271.4 51.08 271.409 50.996C271.446 50.2867 271.605 49.68 271.885 49.176C272.174 48.6627 272.571 48.2707 273.075 48C273.579 47.72 274.172 47.58 274.853 47.58C275.609 47.58 276.244 47.7387 276.757 48.056C277.27 48.364 277.658 48.798 277.919 49.358C278.18 49.9087 278.311 50.548 278.311 51.276V51.57C278.311 51.6633 278.278 51.7427 278.213 51.808C278.148 51.8733 278.064 51.906 277.961 51.906H273.313C273.313 51.906 273.313 51.92 273.313 51.948C273.313 51.976 273.313 51.9993 273.313 52.018C273.322 52.3447 273.383 52.648 273.495 52.928C273.616 53.1987 273.789 53.418 274.013 53.586C274.246 53.754 274.522 53.838 274.839 53.838C275.1 53.838 275.32 53.8007 275.497 53.726C275.674 53.642 275.819 53.5487 275.931 53.446C276.043 53.3433 276.122 53.2593 276.169 53.194C276.253 53.082 276.318 53.0167 276.365 52.998C276.421 52.97 276.5 52.956 276.603 52.956H277.807C277.9 52.956 277.975 52.984 278.031 53.04C278.096 53.096 278.124 53.166 278.115 53.25C278.106 53.3993 278.026 53.5813 277.877 53.796C277.737 54.0107 277.532 54.2207 277.261 54.426C276.99 54.6313 276.65 54.804 276.239 54.944C275.838 55.0747 275.376 55.14 274.853 55.14ZM273.313 50.73H276.407V50.688C276.407 50.324 276.346 50.0067 276.225 49.736C276.104 49.456 275.926 49.2413 275.693 49.092C275.46 48.9333 275.18 48.854 274.853 48.854C274.526 48.854 274.246 48.9333 274.013 49.092C273.78 49.2413 273.602 49.456 273.481 49.736C273.369 50.0067 273.313 50.324 273.313 50.688V50.73Z" fill="#F3303E"/>
<path d="M58.746 72.14C57.8873 72.14 57.1733 71.9813 56.604 71.664C56.044 71.3467 55.6193 70.9033 55.33 70.334C55.0407 69.7647 54.882 69.102 54.854 68.346C54.8447 67.9633 54.84 67.5527 54.84 67.114C54.84 66.6753 54.8447 66.2553 54.854 65.854C54.882 65.098 55.0407 64.4353 55.33 63.866C55.6193 63.2967 56.044 62.8533 56.604 62.536C57.1733 62.2187 57.8873 62.06 58.746 62.06C59.39 62.06 59.9547 62.1487 60.44 62.326C60.9253 62.5033 61.3267 62.7413 61.644 63.04C61.9707 63.3387 62.218 63.6747 62.386 64.048C62.554 64.412 62.6473 64.79 62.666 65.182C62.6753 65.266 62.6473 65.336 62.582 65.392C62.526 65.448 62.456 65.476 62.372 65.476H61.602C61.518 65.476 61.4433 65.4527 61.378 65.406C61.322 65.3593 61.28 65.2753 61.252 65.154C61.0933 64.426 60.7947 63.9267 60.356 63.656C59.9267 63.3853 59.39 63.25 58.746 63.25C57.99 63.25 57.3927 63.4647 56.954 63.894C56.5153 64.314 56.282 64.9907 56.254 65.924C56.226 66.6893 56.226 67.4733 56.254 68.276C56.282 69.2093 56.5153 69.8907 56.954 70.32C57.3927 70.74 57.99 70.95 58.746 70.95C59.39 70.95 59.9267 70.8147 60.356 70.544C60.7947 70.2733 61.0933 69.774 61.252 69.046C61.28 68.9247 61.322 68.8407 61.378 68.794C61.4433 68.7473 61.518 68.724 61.602 68.724H62.372C62.456 68.724 62.526 68.752 62.582 68.808C62.6473 68.8547 62.6753 68.92 62.666 69.004C62.6473 69.396 62.554 69.7787 62.386 70.152C62.218 70.5253 61.9707 70.8613 61.644 71.16C61.3267 71.4587 60.9253 71.6967 60.44 71.874C59.9547 72.0513 59.39 72.14 58.746 72.14ZM67.3422 72.14C66.6329 72.14 66.0402 72.0047 65.5642 71.734C65.0882 71.4633 64.7242 71.09 64.4722 70.614C64.2202 70.1287 64.0802 69.578 64.0522 68.962C64.0429 68.8033 64.0382 68.6027 64.0382 68.36C64.0382 68.108 64.0429 67.9073 64.0522 67.758C64.0802 67.1327 64.2202 66.582 64.4722 66.106C64.7336 65.63 65.1022 65.2567 65.5782 64.986C66.0542 64.7153 66.6422 64.58 67.3422 64.58C68.0422 64.58 68.6302 64.7153 69.1062 64.986C69.5822 65.2567 69.9462 65.63 70.1982 66.106C70.4596 66.582 70.6042 67.1327 70.6322 67.758C70.6416 67.9073 70.6462 68.108 70.6462 68.36C70.6462 68.6027 70.6416 68.8033 70.6322 68.962C70.6042 69.578 70.4642 70.1287 70.2122 70.614C69.9602 71.09 69.5962 71.4633 69.1202 71.734C68.6442 72.0047 68.0516 72.14 67.3422 72.14ZM67.3422 71.062C67.9209 71.062 68.3829 70.88 68.7282 70.516C69.0736 70.1427 69.2602 69.6013 69.2882 68.892C69.2976 68.752 69.3022 68.5747 69.3022 68.36C69.3022 68.1453 69.2976 67.968 69.2882 67.828C69.2602 67.1187 69.0736 66.582 68.7282 66.218C68.3829 65.8447 67.9209 65.658 67.3422 65.658C66.7636 65.658 66.2969 65.8447 65.9422 66.218C65.5969 66.582 65.4149 67.1187 65.3962 67.828C65.3869 67.968 65.3822 68.1453 65.3822 68.36C65.3822 68.5747 65.3869 68.752 65.3962 68.892C65.4149 69.6013 65.5969 70.1427 65.9422 70.516C66.2969 70.88 66.7636 71.062 67.3422 71.062ZM72.7213 72C72.6279 72 72.5486 71.972 72.4833 71.916C72.4273 71.8507 72.3993 71.7713 72.3993 71.678V65.042C72.3993 64.9487 72.4273 64.874 72.4833 64.818C72.5486 64.7527 72.6279 64.72 72.7213 64.72H73.3793C73.4726 64.72 73.5473 64.7527 73.6033 64.818C73.6686 64.874 73.7013 64.9487 73.7013 65.042V65.658C73.9439 65.3407 74.2473 65.084 74.6113 64.888C74.9846 64.6827 75.4606 64.58 76.0393 64.58C76.6459 64.58 77.1593 64.7153 77.5793 64.986C78.0086 65.2473 78.3306 65.616 78.5453 66.092C78.7693 66.5587 78.8813 67.1047 78.8813 67.73V71.678C78.8813 71.7713 78.8486 71.8507 78.7833 71.916C78.7273 71.972 78.6526 72 78.5593 72H77.8593C77.7659 72 77.6866 71.972 77.6213 71.916C77.5653 71.8507 77.5373 71.7713 77.5373 71.678V67.8C77.5373 67.1467 77.3786 66.638 77.0613 66.274C76.7439 65.9007 76.2773 65.714 75.6613 65.714C75.0826 65.714 74.6159 65.9007 74.2613 66.274C73.9159 66.638 73.7433 67.1467 73.7433 67.8V71.678C73.7433 71.7713 73.7106 71.8507 73.6453 71.916C73.5893 71.972 73.5146 72 73.4213 72H72.7213ZM83.6358 72C83.1131 72 82.6885 71.902 82.3618 71.706C82.0351 71.5007 81.7971 71.216 81.6478 70.852C81.4985 70.4787 81.4238 70.04 81.4238 69.536V65.84H80.3318C80.2385 65.84 80.1591 65.812 80.0938 65.756C80.0378 65.6907 80.0098 65.6113 80.0098 65.518V65.042C80.0098 64.9487 80.0378 64.874 80.0938 64.818C80.1591 64.7527 80.2385 64.72 80.3318 64.72H81.4238V62.382C81.4238 62.2887 81.4518 62.214 81.5078 62.158C81.5731 62.0927 81.6525 62.06 81.7458 62.06H82.4038C82.4971 62.06 82.5718 62.0927 82.6278 62.158C82.6931 62.214 82.7258 62.2887 82.7258 62.382V64.72H84.4618C84.5645 64.72 84.6438 64.7527 84.6998 64.818C84.7558 64.874 84.7838 64.9487 84.7838 65.042V65.518C84.7838 65.6113 84.7558 65.6907 84.6998 65.756C84.6438 65.812 84.5645 65.84 84.4618 65.84H82.7258V69.438C82.7258 69.8767 82.8005 70.222 82.9498 70.474C83.0991 70.726 83.3651 70.852 83.7478 70.852H84.6018C84.6951 70.852 84.7698 70.8847 84.8258 70.95C84.8911 71.006 84.9238 71.0807 84.9238 71.174V71.678C84.9238 71.7713 84.8911 71.8507 84.8258 71.916C84.7698 71.972 84.6951 72 84.6018 72H83.6358ZM89.1746 72.14C88.2039 72.14 87.4339 71.846 86.8646 71.258C86.2952 70.6607 85.9826 69.8487 85.9266 68.822C85.9172 68.7007 85.9126 68.5467 85.9126 68.36C85.9126 68.164 85.9172 68.0053 85.9266 67.884C85.9639 67.2213 86.1179 66.6427 86.3886 66.148C86.6592 65.644 87.0279 65.2567 87.4946 64.986C87.9706 64.7153 88.5259 64.58 89.1606 64.58C89.8699 64.58 90.4626 64.7293 90.9386 65.028C91.4239 65.3267 91.7926 65.7513 92.0446 66.302C92.2966 66.8527 92.4226 67.4967 92.4226 68.234V68.472C92.4226 68.5747 92.3899 68.654 92.3246 68.71C92.2686 68.766 92.1939 68.794 92.1006 68.794H87.2566C87.2566 68.8033 87.2566 68.822 87.2566 68.85C87.2566 68.878 87.2566 68.9013 87.2566 68.92C87.2752 69.3027 87.3592 69.662 87.5086 69.998C87.6579 70.3247 87.8726 70.5907 88.1526 70.796C88.4419 71.0013 88.7779 71.104 89.1606 71.104C89.4966 71.104 89.7766 71.0527 90.0006 70.95C90.2246 70.8473 90.4066 70.7353 90.5466 70.614C90.6866 70.4833 90.7799 70.3807 90.8266 70.306C90.9106 70.194 90.9759 70.1287 91.0226 70.11C91.0692 70.082 91.1439 70.068 91.2466 70.068H91.9326C92.0166 70.068 92.0866 70.096 92.1426 70.152C92.2079 70.1987 92.2359 70.2687 92.2266 70.362C92.2172 70.502 92.1426 70.6747 92.0026 70.88C91.8626 71.076 91.6619 71.272 91.4006 71.468C91.1486 71.664 90.8312 71.8273 90.4486 71.958C90.0752 72.0793 89.6506 72.14 89.1746 72.14ZM87.2566 67.828H91.0926V67.786C91.0926 67.366 91.0132 66.9927 90.8546 66.666C90.7052 66.3393 90.4859 66.0827 90.1966 65.896C89.9072 65.7 89.5619 65.602 89.1606 65.602C88.7592 65.602 88.4139 65.7 88.1246 65.896C87.8446 66.0827 87.6299 66.3393 87.4806 66.666C87.3312 66.9927 87.2566 67.366 87.2566 67.786V67.828ZM94.4185 72C94.3252 72 94.2459 71.972 94.1805 71.916C94.1245 71.8507 94.0965 71.7713 94.0965 71.678V65.042C94.0965 64.9487 94.1245 64.874 94.1805 64.818C94.2459 64.7527 94.3252 64.72 94.4185 64.72H95.0765C95.1699 64.72 95.2445 64.7527 95.3005 64.818C95.3659 64.874 95.3985 64.9487 95.3985 65.042V65.658C95.6412 65.3407 95.9445 65.084 96.3085 64.888C96.6819 64.6827 97.1579 64.58 97.7365 64.58C98.3432 64.58 98.8565 64.7153 99.2765 64.986C99.7059 65.2473 100.028 65.616 100.243 66.092C100.467 66.5587 100.579 67.1047 100.579 67.73V71.678C100.579 71.7713 100.546 71.8507 100.481 71.916C100.425 71.972 100.35 72 100.257 72H99.5565C99.4632 72 99.3839 71.972 99.3185 71.916C99.2625 71.8507 99.2345 71.7713 99.2345 71.678V67.8C99.2345 67.1467 99.0759 66.638 98.7585 66.274C98.4412 65.9007 97.9745 65.714 97.3585 65.714C96.7799 65.714 96.3132 65.9007 95.9585 66.274C95.6132 66.638 95.4405 67.1467 95.4405 67.8V71.678C95.4405 71.7713 95.4079 71.8507 95.3425 71.916C95.2865 71.972 95.2119 72 95.1185 72H94.4185ZM105.333 72C104.81 72 104.386 71.902 104.059 71.706C103.732 71.5007 103.494 71.216 103.345 70.852C103.196 70.4787 103.121 70.04 103.121 69.536V65.84H102.029C101.936 65.84 101.856 65.812 101.791 65.756C101.735 65.6907 101.707 65.6113 101.707 65.518V65.042C101.707 64.9487 101.735 64.874 101.791 64.818C101.856 64.7527 101.936 64.72 102.029 64.72H103.121V62.382C103.121 62.2887 103.149 62.214 103.205 62.158C103.27 62.0927 103.35 62.06 103.443 62.06H104.101C104.194 62.06 104.269 62.0927 104.325 62.158C104.39 62.214 104.423 62.2887 104.423 62.382V64.72H106.159C106.262 64.72 106.341 64.7527 106.397 64.818C106.453 64.874 106.481 64.9487 106.481 65.042V65.518C106.481 65.6113 106.453 65.6907 106.397 65.756C106.341 65.812 106.262 65.84 106.159 65.84H104.423V69.438C104.423 69.8767 104.498 70.222 104.647 70.474C104.796 70.726 105.062 70.852 105.445 70.852H106.299C106.392 70.852 106.467 70.8847 106.523 70.95C106.588 71.006 106.621 71.0807 106.621 71.174V71.678C106.621 71.7713 106.588 71.8507 106.523 71.916C106.467 71.972 106.392 72 106.299 72H105.333ZM114.303 72.14C113.333 72.14 112.563 71.846 111.993 71.258C111.424 70.6607 111.111 69.8487 111.055 68.822C111.046 68.7007 111.041 68.5467 111.041 68.36C111.041 68.164 111.046 68.0053 111.055 67.884C111.093 67.2213 111.247 66.6427 111.517 66.148C111.788 65.644 112.157 65.2567 112.623 64.986C113.099 64.7153 113.655 64.58 114.289 64.58C114.999 64.58 115.591 64.7293 116.067 65.028C116.553 65.3267 116.921 65.7513 117.173 66.302C117.425 66.8527 117.551 67.4967 117.551 68.234V68.472C117.551 68.5747 117.519 68.654 117.453 68.71C117.397 68.766 117.323 68.794 117.229 68.794H112.385C112.385 68.8033 112.385 68.822 112.385 68.85C112.385 68.878 112.385 68.9013 112.385 68.92C112.404 69.3027 112.488 69.662 112.637 69.998C112.787 70.3247 113.001 70.5907 113.281 70.796C113.571 71.0013 113.907 71.104 114.289 71.104C114.625 71.104 114.905 71.0527 115.129 70.95C115.353 70.8473 115.535 70.7353 115.675 70.614C115.815 70.4833 115.909 70.3807 115.955 70.306C116.039 70.194 116.105 70.1287 116.151 70.11C116.198 70.082 116.273 70.068 116.375 70.068H117.061C117.145 70.068 117.215 70.096 117.271 70.152C117.337 70.1987 117.365 70.2687 117.355 70.362C117.346 70.502 117.271 70.6747 117.131 70.88C116.991 71.076 116.791 71.272 116.529 71.468C116.277 71.664 115.96 71.8273 115.577 71.958C115.204 72.0793 114.779 72.14 114.303 72.14ZM112.385 67.828H116.221V67.786C116.221 67.366 116.142 66.9927 115.983 66.666C115.834 66.3393 115.615 66.0827 115.325 65.896C115.036 65.7 114.691 65.602 114.289 65.602C113.888 65.602 113.543 65.7 113.253 65.896C112.973 66.0827 112.759 66.3393 112.609 66.666C112.46 66.9927 112.385 67.366 112.385 67.786V67.828ZM118.739 72C118.664 72 118.594 71.972 118.529 71.916C118.473 71.86 118.445 71.79 118.445 71.706C118.445 71.678 118.45 71.6453 118.459 71.608C118.478 71.5613 118.506 71.51 118.543 71.454L120.979 68.276L118.697 65.266C118.66 65.21 118.632 65.1633 118.613 65.126C118.604 65.0887 118.599 65.0513 118.599 65.014C118.599 64.93 118.627 64.86 118.683 64.804C118.739 64.748 118.809 64.72 118.893 64.72H119.607C119.71 64.72 119.789 64.748 119.845 64.804C119.901 64.8507 119.943 64.8973 119.971 64.944L121.833 67.366L123.695 64.958C123.732 64.9113 123.774 64.86 123.821 64.804C123.877 64.748 123.956 64.72 124.059 64.72H124.745C124.829 64.72 124.899 64.748 124.955 64.804C125.011 64.86 125.039 64.93 125.039 65.014C125.039 65.0513 125.03 65.0887 125.011 65.126C125.002 65.1633 124.978 65.21 124.941 65.266L122.631 68.304L125.067 71.454C125.104 71.51 125.128 71.5567 125.137 71.594C125.156 71.6313 125.165 71.6687 125.165 71.706C125.165 71.79 125.137 71.86 125.081 71.916C125.025 71.972 124.955 72 124.871 72H124.129C124.036 72 123.961 71.9767 123.905 71.93C123.849 71.8833 123.802 71.8367 123.765 71.79L121.805 69.228L119.817 71.79C119.78 71.8273 119.733 71.874 119.677 71.93C119.63 71.9767 119.556 72 119.453 72H118.739ZM126.958 74.66C126.865 74.66 126.785 74.6273 126.72 74.562C126.664 74.506 126.636 74.4313 126.636 74.338V65.042C126.636 64.9487 126.664 64.874 126.72 64.818C126.785 64.7527 126.865 64.72 126.958 64.72H127.602C127.695 64.72 127.77 64.7527 127.826 64.818C127.891 64.874 127.924 64.9487 127.924 65.042V65.658C128.148 65.35 128.447 65.0933 128.82 64.888C129.193 64.6827 129.66 64.58 130.22 64.58C130.743 64.58 131.186 64.6687 131.55 64.846C131.923 65.0233 132.227 65.266 132.46 65.574C132.703 65.882 132.885 66.232 133.006 66.624C133.127 67.016 133.197 67.436 133.216 67.884C133.225 68.0333 133.23 68.192 133.23 68.36C133.23 68.528 133.225 68.6867 133.216 68.836C133.197 69.2747 133.127 69.6947 133.006 70.096C132.885 70.488 132.703 70.838 132.46 71.146C132.227 71.4447 131.923 71.6873 131.55 71.874C131.186 72.0513 130.743 72.14 130.22 72.14C129.679 72.14 129.221 72.042 128.848 71.846C128.484 71.6407 128.185 71.3887 127.952 71.09V74.338C127.952 74.4313 127.924 74.506 127.868 74.562C127.812 74.6273 127.737 74.66 127.644 74.66H126.958ZM129.926 71.006C130.411 71.006 130.789 70.9033 131.06 70.698C131.34 70.4833 131.541 70.208 131.662 69.872C131.783 69.5267 131.853 69.158 131.872 68.766C131.881 68.4953 131.881 68.2247 131.872 67.954C131.853 67.562 131.783 67.198 131.662 66.862C131.541 66.5167 131.34 66.2413 131.06 66.036C130.789 65.8213 130.411 65.714 129.926 65.714C129.469 65.714 129.095 65.8213 128.806 66.036C128.526 66.2507 128.316 66.526 128.176 66.862C128.045 67.1887 127.971 67.5247 127.952 67.87C127.943 68.0193 127.938 68.1967 127.938 68.402C127.938 68.6073 127.943 68.7893 127.952 68.948C127.961 69.2747 128.036 69.5967 128.176 69.914C128.325 70.2313 128.545 70.4927 128.834 70.698C129.123 70.9033 129.487 71.006 129.926 71.006ZM135.298 72C135.204 72 135.125 71.972 135.06 71.916C135.004 71.8507 134.976 71.7713 134.976 71.678V62.382C134.976 62.2887 135.004 62.214 135.06 62.158C135.125 62.0927 135.204 62.06 135.298 62.06H135.956C136.058 62.06 136.138 62.0927 136.194 62.158C136.25 62.214 136.278 62.2887 136.278 62.382V71.678C136.278 71.7713 136.25 71.8507 136.194 71.916C136.138 71.972 136.058 72 135.956 72H135.298ZM140.396 72.14C139.929 72.14 139.505 72.0467 139.122 71.86C138.739 71.6733 138.431 71.4213 138.198 71.104C137.965 70.7867 137.848 70.4273 137.848 70.026C137.848 69.382 138.109 68.8687 138.632 68.486C139.155 68.1033 139.836 67.8513 140.676 67.73L142.762 67.436V67.03C142.762 66.582 142.631 66.232 142.37 65.98C142.118 65.728 141.703 65.602 141.124 65.602C140.713 65.602 140.377 65.686 140.116 65.854C139.855 66.022 139.673 66.2367 139.57 66.498C139.514 66.638 139.416 66.708 139.276 66.708H138.646C138.543 66.708 138.464 66.68 138.408 66.624C138.361 66.5587 138.338 66.484 138.338 66.4C138.338 66.26 138.389 66.0873 138.492 65.882C138.604 65.6767 138.772 65.476 138.996 65.28C139.22 65.084 139.505 64.9207 139.85 64.79C140.205 64.65 140.634 64.58 141.138 64.58C141.698 64.58 142.169 64.6547 142.552 64.804C142.935 64.944 143.233 65.1353 143.448 65.378C143.672 65.6207 143.831 65.896 143.924 66.204C144.027 66.512 144.078 66.8247 144.078 67.142V71.678C144.078 71.7713 144.045 71.8507 143.98 71.916C143.924 71.972 143.849 72 143.756 72H143.112C143.009 72 142.93 71.972 142.874 71.916C142.818 71.8507 142.79 71.7713 142.79 71.678V71.076C142.669 71.244 142.505 71.412 142.3 71.58C142.095 71.7387 141.838 71.874 141.53 71.986C141.222 72.0887 140.844 72.14 140.396 72.14ZM140.69 71.09C141.073 71.09 141.423 71.0107 141.74 70.852C142.057 70.684 142.305 70.4273 142.482 70.082C142.669 69.7367 142.762 69.3027 142.762 68.78V68.388L141.138 68.626C140.475 68.7193 139.976 68.878 139.64 69.102C139.304 69.3167 139.136 69.592 139.136 69.928C139.136 70.1893 139.211 70.4087 139.36 70.586C139.519 70.754 139.715 70.88 139.948 70.964C140.191 71.048 140.438 71.09 140.69 71.09ZM146.413 72C146.319 72 146.24 71.972 146.175 71.916C146.119 71.8507 146.091 71.7713 146.091 71.678V65.042C146.091 64.9487 146.119 64.874 146.175 64.818C146.24 64.7527 146.319 64.72 146.413 64.72H147.085C147.178 64.72 147.253 64.7527 147.309 64.818C147.374 64.874 147.407 64.9487 147.407 65.042V71.678C147.407 71.7713 147.374 71.8507 147.309 71.916C147.253 71.972 147.178 72 147.085 72H146.413ZM146.301 63.362C146.207 63.362 146.128 63.334 146.063 63.278C146.007 63.2127 145.979 63.1333 145.979 63.04V62.284C145.979 62.1907 146.007 62.1113 146.063 62.046C146.128 61.9807 146.207 61.948 146.301 61.948H147.183C147.276 61.948 147.355 61.9807 147.421 62.046C147.486 62.1113 147.519 62.1907 147.519 62.284V63.04C147.519 63.1333 147.486 63.2127 147.421 63.278C147.355 63.334 147.276 63.362 147.183 63.362H146.301ZM149.803 72C149.71 72 149.631 71.972 149.565 71.916C149.509 71.8507 149.481 71.7713 149.481 71.678V65.042C149.481 64.9487 149.509 64.874 149.565 64.818C149.631 64.7527 149.71 64.72 149.803 64.72H150.461C150.555 64.72 150.629 64.7527 150.685 64.818C150.751 64.874 150.783 64.9487 150.783 65.042V65.658C151.026 65.3407 151.329 65.084 151.693 64.888C152.067 64.6827 152.543 64.58 153.121 64.58C153.728 64.58 154.241 64.7153 154.661 64.986C155.091 65.2473 155.413 65.616 155.627 66.092C155.851 66.5587 155.963 67.1047 155.963 67.73V71.678C155.963 71.7713 155.931 71.8507 155.865 71.916C155.809 71.972 155.735 72 155.641 72H154.941C154.848 72 154.769 71.972 154.703 71.916C154.647 71.8507 154.619 71.7713 154.619 71.678V67.8C154.619 67.1467 154.461 66.638 154.143 66.274C153.826 65.9007 153.359 65.714 152.743 65.714C152.165 65.714 151.698 65.9007 151.343 66.274C150.998 66.638 150.825 67.1467 150.825 67.8V71.678C150.825 71.7713 150.793 71.8507 150.727 71.916C150.671 71.972 150.597 72 150.503 72H149.803ZM158.294 72C158.2 72 158.121 71.972 158.056 71.916C158 71.8507 157.972 71.7713 157.972 71.678V65.042C157.972 64.9487 158 64.874 158.056 64.818C158.121 64.7527 158.2 64.72 158.294 64.72H158.966C159.059 64.72 159.134 64.7527 159.19 64.818C159.255 64.874 159.288 64.9487 159.288 65.042V71.678C159.288 71.7713 159.255 71.8507 159.19 71.916C159.134 71.972 159.059 72 158.966 72H158.294ZM158.182 63.362C158.088 63.362 158.009 63.334 157.944 63.278C157.888 63.2127 157.86 63.1333 157.86 63.04V62.284C157.86 62.1907 157.888 62.1113 157.944 62.046C158.009 61.9807 158.088 61.948 158.182 61.948H159.064C159.157 61.948 159.236 61.9807 159.302 62.046C159.367 62.1113 159.4 62.1907 159.4 62.284V63.04C159.4 63.1333 159.367 63.2127 159.302 63.278C159.236 63.334 159.157 63.362 159.064 63.362H158.182ZM161.684 72C161.591 72 161.512 71.972 161.446 71.916C161.39 71.8507 161.362 71.7713 161.362 71.678V65.042C161.362 64.9487 161.39 64.874 161.446 64.818C161.512 64.7527 161.591 64.72 161.684 64.72H162.342C162.436 64.72 162.51 64.7527 162.566 64.818C162.632 64.874 162.664 64.9487 162.664 65.042V65.658C162.907 65.3407 163.21 65.084 163.574 64.888C163.948 64.6827 164.424 64.58 165.002 64.58C165.609 64.58 166.122 64.7153 166.542 64.986C166.972 65.2473 167.294 65.616 167.508 66.092C167.732 66.5587 167.844 67.1047 167.844 67.73V71.678C167.844 71.7713 167.812 71.8507 167.746 71.916C167.69 71.972 167.616 72 167.522 72H166.822C166.729 72 166.65 71.972 166.584 71.916C166.528 71.8507 166.5 71.7713 166.5 71.678V67.8C166.5 67.1467 166.342 66.638 166.024 66.274C165.707 65.9007 165.24 65.714 164.624 65.714C164.046 65.714 163.579 65.9007 163.224 66.274C162.879 66.638 162.706 67.1467 162.706 67.8V71.678C162.706 71.7713 162.674 71.8507 162.608 71.916C162.552 71.972 162.478 72 162.384 72H161.684ZM172.834 75.08C172.2 75.08 171.677 74.996 171.266 74.828C170.865 74.66 170.548 74.4547 170.314 74.212C170.09 73.9787 169.927 73.7407 169.824 73.498C169.731 73.2647 169.68 73.078 169.67 72.938C169.661 72.8447 169.689 72.7653 169.754 72.7C169.829 72.6347 169.908 72.602 169.992 72.602H170.664C170.748 72.602 170.818 72.6207 170.874 72.658C170.93 72.6953 170.977 72.7747 171.014 72.896C171.07 73.036 171.154 73.19 171.266 73.358C171.378 73.5353 171.551 73.6847 171.784 73.806C172.018 73.9367 172.344 74.002 172.764 74.002C173.203 74.002 173.572 73.9413 173.87 73.82C174.169 73.6987 174.393 73.4933 174.542 73.204C174.701 72.9147 174.78 72.5133 174.78 72V71.048C174.556 71.3373 174.262 71.58 173.898 71.776C173.534 71.9627 173.077 72.056 172.526 72.056C172.004 72.056 171.556 71.9673 171.182 71.79C170.809 71.6033 170.501 71.356 170.258 71.048C170.025 70.7307 169.848 70.3713 169.726 69.97C169.614 69.5687 169.549 69.1487 169.53 68.71C169.521 68.4487 169.521 68.192 169.53 67.94C169.549 67.5013 169.614 67.0813 169.726 66.68C169.848 66.2787 170.025 65.9193 170.258 65.602C170.501 65.2847 170.809 65.0373 171.182 64.86C171.556 64.6733 172.004 64.58 172.526 64.58C173.086 64.58 173.548 64.6827 173.912 64.888C174.286 65.0933 174.589 65.35 174.822 65.658V65.056C174.822 64.9627 174.85 64.8833 174.906 64.818C174.972 64.7527 175.051 64.72 175.144 64.72H175.788C175.882 64.72 175.961 64.7527 176.026 64.818C176.092 64.8833 176.124 64.9627 176.124 65.056V71.846C176.124 72.4713 176.017 73.0267 175.802 73.512C175.597 73.9973 175.252 74.38 174.766 74.66C174.29 74.94 173.646 75.08 172.834 75.08ZM172.806 70.936C173.273 70.936 173.646 70.8287 173.926 70.614C174.216 70.3993 174.426 70.1287 174.556 69.802C174.696 69.4753 174.771 69.144 174.78 68.808C174.79 68.6773 174.794 68.5187 174.794 68.332C174.794 68.136 174.79 67.9727 174.78 67.842C174.771 67.506 174.696 67.1747 174.556 66.848C174.426 66.5213 174.216 66.2507 173.926 66.036C173.646 65.8213 173.273 65.714 172.806 65.714C172.34 65.714 171.966 65.8213 171.686 66.036C171.406 66.2413 171.206 66.5167 171.084 66.862C170.963 67.198 170.893 67.562 170.874 67.954C170.865 68.1967 170.865 68.444 170.874 68.696C170.893 69.088 170.963 69.4567 171.084 69.802C171.206 70.138 171.406 70.4133 171.686 70.628C171.966 70.8333 172.34 70.936 172.806 70.936ZM183.241 72C183.12 72 183.027 71.972 182.961 71.916C182.896 71.8507 182.84 71.762 182.793 71.65L180.805 65.154C180.787 65.1073 180.777 65.0607 180.777 65.014C180.777 64.93 180.805 64.86 180.861 64.804C180.927 64.748 180.997 64.72 181.071 64.72H181.687C181.79 64.72 181.869 64.748 181.925 64.804C181.981 64.86 182.019 64.9113 182.037 64.958L183.591 70.236L185.257 65.014C185.276 64.9487 185.313 64.8833 185.369 64.818C185.435 64.7527 185.528 64.72 185.649 64.72H186.125C186.247 64.72 186.34 64.7527 186.405 64.818C186.471 64.8833 186.508 64.9487 186.517 65.014L188.183 70.236L189.737 64.958C189.747 64.9113 189.779 64.86 189.835 64.804C189.891 64.748 189.971 64.72 190.073 64.72H190.703C190.778 64.72 190.843 64.748 190.899 64.804C190.955 64.86 190.983 64.93 190.983 65.014C190.983 65.0607 190.974 65.1073 190.955 65.154L188.981 71.65C188.944 71.762 188.893 71.8507 188.827 71.916C188.762 71.972 188.659 72 188.519 72H187.973C187.852 72 187.749 71.972 187.665 71.916C187.591 71.8507 187.539 71.762 187.511 71.65L185.887 66.638L184.263 71.65C184.226 71.762 184.17 71.8507 184.095 71.916C184.021 71.972 183.918 72 183.787 72H183.241ZM192.87 72C192.777 72 192.697 71.972 192.632 71.916C192.576 71.8507 192.548 71.7713 192.548 71.678V62.382C192.548 62.2887 192.576 62.214 192.632 62.158C192.697 62.0927 192.777 62.06 192.87 62.06H193.57C193.673 62.06 193.752 62.0927 193.808 62.158C193.864 62.214 193.892 62.2887 193.892 62.382V65.644C194.144 65.3267 194.452 65.07 194.816 64.874C195.18 64.678 195.642 64.58 196.202 64.58C196.809 64.58 197.322 64.7153 197.742 64.986C198.171 65.2473 198.493 65.616 198.708 66.092C198.932 66.5587 199.044 67.1047 199.044 67.73V71.678C199.044 71.7713 199.016 71.8507 198.96 71.916C198.904 71.972 198.825 72 198.722 72H198.022C197.929 72 197.849 71.972 197.784 71.916C197.728 71.8507 197.7 71.7713 197.7 71.678V67.8C197.7 67.1467 197.541 66.638 197.224 66.274C196.907 65.9007 196.44 65.714 195.824 65.714C195.245 65.714 194.779 65.9007 194.424 66.274C194.069 66.638 193.892 67.1467 193.892 67.8V71.678C193.892 71.7713 193.864 71.8507 193.808 71.916C193.752 71.972 193.673 72 193.57 72H192.87ZM202.121 74.66C202.046 74.66 201.981 74.632 201.925 74.576C201.869 74.52 201.841 74.4547 201.841 74.38C201.841 74.3427 201.845 74.3053 201.855 74.268C201.864 74.2307 201.883 74.184 201.911 74.128L202.989 71.566L200.315 65.252C200.268 65.14 200.245 65.0607 200.245 65.014C200.245 64.93 200.273 64.86 200.329 64.804C200.385 64.748 200.455 64.72 200.539 64.72H201.225C201.327 64.72 201.402 64.7433 201.449 64.79C201.505 64.8367 201.542 64.8927 201.561 64.958L203.689 70.054L205.873 64.958C205.901 64.8927 205.938 64.8367 205.985 64.79C206.041 64.7433 206.12 64.72 206.223 64.72H206.881C206.965 64.72 207.035 64.748 207.091 64.804C207.147 64.86 207.175 64.9253 207.175 65C207.175 65.0467 207.151 65.1307 207.105 65.252L203.129 74.422C203.101 74.4873 203.059 74.5433 203.003 74.59C202.956 74.6367 202.881 74.66 202.779 74.66H202.121ZM214.175 72C213.652 72 213.228 71.902 212.901 71.706C212.574 71.5007 212.336 71.216 212.187 70.852C212.038 70.4787 211.963 70.04 211.963 69.536V65.84H210.871C210.778 65.84 210.698 65.812 210.633 65.756C210.577 65.6907 210.549 65.6113 210.549 65.518V65.042C210.549 64.9487 210.577 64.874 210.633 64.818C210.698 64.7527 210.778 64.72 210.871 64.72H211.963V62.382C211.963 62.2887 211.991 62.214 212.047 62.158C212.112 62.0927 212.192 62.06 212.285 62.06H212.943C213.036 62.06 213.111 62.0927 213.167 62.158C213.232 62.214 213.265 62.2887 213.265 62.382V64.72H215.001C215.104 64.72 215.183 64.7527 215.239 64.818C215.295 64.874 215.323 64.9487 215.323 65.042V65.518C215.323 65.6113 215.295 65.6907 215.239 65.756C215.183 65.812 215.104 65.84 215.001 65.84H213.265V69.438C213.265 69.8767 213.34 70.222 213.489 70.474C213.638 70.726 213.904 70.852 214.287 70.852H215.141C215.234 70.852 215.309 70.8847 215.365 70.95C215.43 71.006 215.463 71.0807 215.463 71.174V71.678C215.463 71.7713 215.43 71.8507 215.365 71.916C215.309 71.972 215.234 72 215.141 72H214.175ZM217.138 72C217.044 72 216.965 71.972 216.9 71.916C216.844 71.8507 216.816 71.7713 216.816 71.678V62.382C216.816 62.2887 216.844 62.214 216.9 62.158C216.965 62.0927 217.044 62.06 217.138 62.06H217.838C217.94 62.06 218.02 62.0927 218.076 62.158C218.132 62.214 218.16 62.2887 218.16 62.382V65.644C218.412 65.3267 218.72 65.07 219.084 64.874C219.448 64.678 219.91 64.58 220.47 64.58C221.076 64.58 221.59 64.7153 222.01 64.986C222.439 65.2473 222.761 65.616 222.976 66.092C223.2 66.5587 223.312 67.1047 223.312 67.73V71.678C223.312 71.7713 223.284 71.8507 223.228 71.916C223.172 71.972 223.092 72 222.99 72H222.29C222.196 72 222.117 71.972 222.052 71.916C221.996 71.8507 221.968 71.7713 221.968 71.678V67.8C221.968 67.1467 221.809 66.638 221.492 66.274C221.174 65.9007 220.708 65.714 220.092 65.714C219.513 65.714 219.046 65.9007 218.692 66.274C218.337 66.638 218.16 67.1467 218.16 67.8V71.678C218.16 71.7713 218.132 71.8507 218.076 71.916C218.02 71.972 217.94 72 217.838 72H217.138ZM225.655 72C225.562 72 225.482 71.972 225.417 71.916C225.361 71.8507 225.333 71.7713 225.333 71.678V65.042C225.333 64.9487 225.361 64.874 225.417 64.818C225.482 64.7527 225.562 64.72 225.655 64.72H226.327C226.42 64.72 226.495 64.7527 226.551 64.818C226.616 64.874 226.649 64.9487 226.649 65.042V71.678C226.649 71.7713 226.616 71.8507 226.551 71.916C226.495 71.972 226.42 72 226.327 72H225.655ZM225.543 63.362C225.45 63.362 225.37 63.334 225.305 63.278C225.249 63.2127 225.221 63.1333 225.221 63.04V62.284C225.221 62.1907 225.249 62.1113 225.305 62.046C225.37 61.9807 225.45 61.948 225.543 61.948H226.425C226.518 61.948 226.598 61.9807 226.663 62.046C226.728 62.1113 226.761 62.1907 226.761 62.284V63.04C226.761 63.1333 226.728 63.2127 226.663 63.278C226.598 63.334 226.518 63.362 226.425 63.362H225.543ZM231.244 72.14C230.721 72.14 230.273 72.0747 229.9 71.944C229.526 71.8133 229.223 71.6547 228.99 71.468C228.756 71.2813 228.579 71.0947 228.458 70.908C228.346 70.7213 228.285 70.572 228.276 70.46C228.266 70.3573 228.299 70.278 228.374 70.222C228.448 70.166 228.523 70.138 228.598 70.138H229.228C229.274 70.138 229.312 70.1473 229.34 70.166C229.377 70.1753 229.424 70.2127 229.48 70.278C229.601 70.4087 229.736 70.5393 229.886 70.67C230.035 70.8007 230.217 70.908 230.432 70.992C230.656 71.076 230.931 71.118 231.258 71.118C231.734 71.118 232.126 71.0293 232.434 70.852C232.742 70.6653 232.896 70.3947 232.896 70.04C232.896 69.8067 232.83 69.62 232.7 69.48C232.578 69.34 232.354 69.214 232.028 69.102C231.71 68.99 231.272 68.8733 230.712 68.752C230.152 68.6213 229.708 68.4627 229.382 68.276C229.055 68.08 228.822 67.8513 228.682 67.59C228.542 67.3193 228.472 67.016 228.472 66.68C228.472 66.3347 228.574 66.0033 228.78 65.686C228.985 65.3593 229.284 65.0933 229.676 64.888C230.077 64.6827 230.576 64.58 231.174 64.58C231.659 64.58 232.074 64.6407 232.42 64.762C232.765 64.8833 233.05 65.0373 233.274 65.224C233.498 65.4013 233.666 65.5787 233.778 65.756C233.89 65.9333 233.95 66.0827 233.96 66.204C233.969 66.2973 233.941 66.3767 233.876 66.442C233.81 66.498 233.736 66.526 233.652 66.526H233.064C232.998 66.526 232.942 66.512 232.896 66.484C232.858 66.456 232.821 66.4233 232.784 66.386C232.69 66.2647 232.578 66.1433 232.448 66.022C232.326 65.9007 232.163 65.8027 231.958 65.728C231.762 65.644 231.5 65.602 231.174 65.602C230.707 65.602 230.357 65.7 230.124 65.896C229.89 66.092 229.774 66.3393 229.774 66.638C229.774 66.8153 229.825 66.974 229.928 67.114C230.03 67.254 230.226 67.38 230.516 67.492C230.805 67.604 231.234 67.7253 231.803 67.856C232.42 67.9773 232.905 68.1407 233.26 68.346C233.614 68.5513 233.866 68.7893 234.016 69.06C234.165 69.3307 234.24 69.6433 234.24 69.998C234.24 70.39 234.128 70.7493 233.904 71.076C233.68 71.4027 233.344 71.664 232.896 71.86C232.448 72.0467 231.897 72.14 231.244 72.14ZM239.614 72C239.521 72 239.441 71.972 239.376 71.916C239.32 71.8507 239.292 71.7713 239.292 71.678V65.042C239.292 64.9487 239.32 64.874 239.376 64.818C239.441 64.7527 239.521 64.72 239.614 64.72H240.286C240.379 64.72 240.454 64.7527 240.51 64.818C240.575 64.874 240.608 64.9487 240.608 65.042V71.678C240.608 71.7713 240.575 71.8507 240.51 71.916C240.454 71.972 240.379 72 240.286 72H239.614ZM239.502 63.362C239.409 63.362 239.329 63.334 239.264 63.278C239.208 63.2127 239.18 63.1333 239.18 63.04V62.284C239.18 62.1907 239.208 62.1113 239.264 62.046C239.329 61.9807 239.409 61.948 239.502 61.948H240.384C240.477 61.948 240.557 61.9807 240.622 62.046C240.687 62.1113 240.72 62.1907 240.72 62.284V63.04C240.72 63.1333 240.687 63.2127 240.622 63.278C240.557 63.334 240.477 63.362 240.384 63.362H239.502ZM245.202 72.14C244.68 72.14 244.232 72.0747 243.858 71.944C243.485 71.8133 243.182 71.6547 242.948 71.468C242.715 71.2813 242.538 71.0947 242.416 70.908C242.304 70.7213 242.244 70.572 242.234 70.46C242.225 70.3573 242.258 70.278 242.332 70.222C242.407 70.166 242.482 70.138 242.556 70.138H243.186C243.233 70.138 243.27 70.1473 243.298 70.166C243.336 70.1753 243.382 70.2127 243.438 70.278C243.56 70.4087 243.695 70.5393 243.844 70.67C243.994 70.8007 244.176 70.908 244.39 70.992C244.614 71.076 244.89 71.118 245.216 71.118C245.692 71.118 246.084 71.0293 246.392 70.852C246.7 70.6653 246.854 70.3947 246.854 70.04C246.854 69.8067 246.789 69.62 246.658 69.48C246.537 69.34 246.313 69.214 245.986 69.102C245.669 68.99 245.23 68.8733 244.67 68.752C244.11 68.6213 243.667 68.4627 243.34 68.276C243.014 68.08 242.78 67.8513 242.64 67.59C242.5 67.3193 242.43 67.016 242.43 66.68C242.43 66.3347 242.533 66.0033 242.738 65.686C242.944 65.3593 243.242 65.0933 243.634 64.888C244.036 64.6827 244.535 64.58 245.132 64.58C245.618 64.58 246.033 64.6407 246.378 64.762C246.724 64.8833 247.008 65.0373 247.232 65.224C247.456 65.4013 247.624 65.5787 247.736 65.756C247.848 65.9333 247.909 66.0827 247.918 66.204C247.928 66.2973 247.9 66.3767 247.834 66.442C247.769 66.498 247.694 66.526 247.61 66.526H247.022C246.957 66.526 246.901 66.512 246.854 66.484C246.817 66.456 246.78 66.4233 246.742 66.386C246.649 66.2647 246.537 66.1433 246.406 66.022C246.285 65.9007 246.122 65.8027 245.916 65.728C245.72 65.644 245.459 65.602 245.132 65.602C244.666 65.602 244.316 65.7 244.082 65.896C243.849 66.092 243.732 66.3393 243.732 66.638C243.732 66.8153 243.784 66.974 243.886 67.114C243.989 67.254 244.185 67.38 244.474 67.492C244.764 67.604 245.193 67.7253 245.762 67.856C246.378 67.9773 246.864 68.1407 247.218 68.346C247.573 68.5513 247.825 68.7893 247.974 69.06C248.124 69.3307 248.198 69.6433 248.198 69.998C248.198 70.39 248.086 70.7493 247.862 71.076C247.638 71.4027 247.302 71.664 246.854 71.86C246.406 72.0467 245.856 72.14 245.202 72.14ZM255.281 72.14C254.814 72.14 254.39 72.0467 254.007 71.86C253.624 71.6733 253.316 71.4213 253.083 71.104C252.85 70.7867 252.733 70.4273 252.733 70.026C252.733 69.382 252.994 68.8687 253.517 68.486C254.04 68.1033 254.721 67.8513 255.561 67.73L257.647 67.436V67.03C257.647 66.582 257.516 66.232 257.255 65.98C257.003 65.728 256.588 65.602 256.009 65.602C255.598 65.602 255.262 65.686 255.001 65.854C254.74 66.022 254.558 66.2367 254.455 66.498C254.399 66.638 254.301 66.708 254.161 66.708H253.531C253.428 66.708 253.349 66.68 253.293 66.624C253.246 66.5587 253.223 66.484 253.223 66.4C253.223 66.26 253.274 66.0873 253.377 65.882C253.489 65.6767 253.657 65.476 253.881 65.28C254.105 65.084 254.39 64.9207 254.735 64.79C255.09 64.65 255.519 64.58 256.023 64.58C256.583 64.58 257.054 64.6547 257.437 64.804C257.82 64.944 258.118 65.1353 258.333 65.378C258.557 65.6207 258.716 65.896 258.809 66.204C258.912 66.512 258.963 66.8247 258.963 67.142V71.678C258.963 71.7713 258.93 71.8507 258.865 71.916C258.809 71.972 258.734 72 258.641 72H257.997C257.894 72 257.815 71.972 257.759 71.916C257.703 71.8507 257.675 71.7713 257.675 71.678V71.076C257.554 71.244 257.39 71.412 257.185 71.58C256.98 71.7387 256.723 71.874 256.415 71.986C256.107 72.0887 255.729 72.14 255.281 72.14ZM255.575 71.09C255.958 71.09 256.308 71.0107 256.625 70.852C256.942 70.684 257.19 70.4273 257.367 70.082C257.554 69.7367 257.647 69.3027 257.647 68.78V68.388L256.023 68.626C255.36 68.7193 254.861 68.878 254.525 69.102C254.189 69.3167 254.021 69.592 254.021 69.928C254.021 70.1893 254.096 70.4087 254.245 70.586C254.404 70.754 254.6 70.88 254.833 70.964C255.076 71.048 255.323 71.09 255.575 71.09ZM267.389 72.14C266.68 72.14 266.087 72.0047 265.611 71.734C265.135 71.4633 264.771 71.09 264.519 70.614C264.267 70.1287 264.127 69.578 264.099 68.962C264.09 68.8033 264.085 68.6027 264.085 68.36C264.085 68.108 264.09 67.9073 264.099 67.758C264.127 67.1327 264.267 66.582 264.519 66.106C264.78 65.63 265.149 65.2567 265.625 64.986C266.101 64.7153 266.689 64.58 267.389 64.58C268.089 64.58 268.677 64.7153 269.153 64.986C269.629 65.2567 269.993 65.63 270.245 66.106C270.506 66.582 270.651 67.1327 270.679 67.758C270.688 67.9073 270.693 68.108 270.693 68.36C270.693 68.6027 270.688 68.8033 270.679 68.962C270.651 69.578 270.511 70.1287 270.259 70.614C270.007 71.09 269.643 71.4633 269.167 71.734C268.691 72.0047 268.098 72.14 267.389 72.14ZM267.389 71.062C267.968 71.062 268.43 70.88 268.775 70.516C269.12 70.1427 269.307 69.6013 269.335 68.892C269.344 68.752 269.349 68.5747 269.349 68.36C269.349 68.1453 269.344 67.968 269.335 67.828C269.307 67.1187 269.12 66.582 268.775 66.218C268.43 65.8447 267.968 65.658 267.389 65.658C266.81 65.658 266.344 65.8447 265.989 66.218C265.644 66.582 265.462 67.1187 265.443 67.828C265.434 67.968 265.429 68.1453 265.429 68.36C265.429 68.5747 265.434 68.752 265.443 68.892C265.462 69.6013 265.644 70.1427 265.989 70.516C266.344 70.88 266.81 71.062 267.389 71.062ZM272.782 72C272.689 72 272.609 71.972 272.544 71.916C272.488 71.8507 272.46 71.7713 272.46 71.678V62.382C272.46 62.2887 272.488 62.214 272.544 62.158C272.609 62.0927 272.689 62.06 272.782 62.06H273.44C273.533 62.06 273.608 62.0927 273.664 62.158C273.729 62.214 273.762 62.2887 273.762 62.382V67.254L276.52 64.958C276.632 64.8647 276.716 64.804 276.772 64.776C276.837 64.7387 276.94 64.72 277.08 64.72H277.822C277.906 64.72 277.976 64.748 278.032 64.804C278.088 64.86 278.116 64.93 278.116 65.014C278.116 65.0513 278.102 65.0933 278.074 65.14C278.055 65.1867 278.013 65.2333 277.948 65.28L274.714 67.968L278.298 71.454C278.41 71.5473 278.466 71.6313 278.466 71.706C278.466 71.79 278.438 71.86 278.382 71.916C278.326 71.972 278.256 72 278.172 72H277.444C277.304 72 277.201 71.986 277.136 71.958C277.071 71.9207 276.987 71.8553 276.884 71.762L273.762 68.78V71.678C273.762 71.7713 273.729 71.8507 273.664 71.916C273.608 71.972 273.533 72 273.44 72H272.782Z" fill="#212325"/>
<path d="M167.256 96.1271C166.857 96.5876 166.143 96.5876 165.744 96.1271L162.737 92.6547C162.176 92.007 162.636 91 163.493 91L169.507 91C170.364 91 170.824 92.007 170.263 92.6547L167.256 96.1271Z" fill="white"/>
</g>
<defs>
<filter id="filter0_dd_1107_1548" x="152" y="101" width="28" height="32" filterUnits="userSpaceOnUse" color-interpolation-filters="sRGB">
<feFlood flood-opacity="0" result="BackgroundImageFix"/>
<feColorMatrix in="SourceAlpha" type="matrix" values="0 0 0 0 0 0 0 0 0 0 0 0 0 0 0 0 0 0 127 0" result="hardAlpha"/>
<feMorphology radius="4" operator="erode" in="SourceAlpha" result="effect1_dropShadow_1107_1548"/>
<feOffset dy="8"/>
<feGaussianBlur stdDeviation="4"/>
<feColorMatrix type="matrix" values="0 0 0 0 0.0941176 0 0 0 0 0.152941 0 0 0 0 0.294118 0 0 0 0.08 0"/>
<feBlend mode="normal" in2="BackgroundImageFix" result="effect1_dropShadow_1107_1548"/>
<feColorMatrix in="SourceAlpha" type="matrix" values="0 0 0 0 0 0 0 0 0 0 0 0 0 0 0 0 0 0 127 0" result="hardAlpha"/>
<feMorphology radius="4" operator="erode" in="SourceAlpha" result="effect2_dropShadow_1107_1548"/>
<feOffset dy="4"/>
<feGaussianBlur stdDeviation="3"/>
<feColorMatrix type="matrix" values="0 0 0 0 0.0941176 0 0 0 0 0.152941 0 0 0 0 0.294118 0 0 0 0.12 0"/>
<feBlend mode="normal" in2="effect1_dropShadow_1107_1548" result="effect2_dropShadow_1107_1548"/>
<feBlend mode="normal" in="SourceGraphic" in2="effect2_dropShadow_1107_1548" result="shape"/>
</filter>
<filter id="filter1_dd_1107_1548" x="0" y="0" width="333" height="147" filterUnits="userSpaceOnUse" color-interpolation-filters="sRGB">
<feFlood flood-opacity="0" result="BackgroundImageFix"/>
<feColorMatrix in="SourceAlpha" type="matrix" values="0 0 0 0 0 0 0 0 0 0 0 0 0 0 0 0 0 0 127 0" result="hardAlpha"/>
<feMorphology radius="4" operator="erode" in="SourceAlpha" result="effect1_dropShadow_1107_1548"/>
<feOffset dy="12"/>
<feGaussianBlur stdDeviation="21"/>
<feColorMatrix type="matrix" values="0 0 0 0 0.0941176 0 0 0 0 0.152941 0 0 0 0 0.294118 0 0 0 0.12 0"/>
<feBlend mode="normal" in2="BackgroundImageFix" result="effect1_dropShadow_1107_1548"/>
<feColorMatrix in="SourceAlpha" type="matrix" values="0 0 0 0 0 0 0 0 0 0 0 0 0 0 0 0 0 0 127 0" result="hardAlpha"/>
<feMorphology radius="6" operator="erode" in="SourceAlpha" result="effect2_dropShadow_1107_1548"/>
<feOffset dy="8"/>
<feGaussianBlur stdDeviation="9"/>
<feColorMatrix type="matrix" values="0 0 0 0 0.0941176 0 0 0 0 0.152941 0 0 0 0 0.294118 0 0 0 0.12 0"/>
<feBlend mode="normal" in2="effect1_dropShadow_1107_1548" result="effect2_dropShadow_1107_1548"/>
<feBlend mode="normal" in="SourceGraphic" in2="effect2_dropShadow_1107_1548" result="shape"/>
</filter>
<clipPath id="clip0_1107_1548">
<rect x="156" y="101" width="20" height="20" rx="6" fill="white"/>
</clipPath>
<clipPath id="clip1_1107_1548">
<rect width="20" height="20" fill="white" transform="translate(156 101)"/>
</clipPath>
</defs>
</svg>
